<?xml version="1.0" encoding="utf-8"?>
<!-- Generator: Adobe Illustrator 16.0.0, SVG Export Plug-In . SVG Version: 6.00 Build 0)  -->
<!DOCTYPE svg PUBLIC "-//W3C//DTD SVG 1.1//EN" "http://www.w3.org/Graphics/SVG/1.1/DTD/svg11.dtd">
<svg version="1.1" id="Layer_1" xmlns="http://www.w3.org/2000/svg" xmlns:xlink="http://www.w3.org/1999/xlink" x="0px" y="0px"
	 width="24px" height="24px" viewBox="-305.5 396.5 24 24" enable-background="new -305.5 396.5 24 24" xml:space="preserve">
<path fill="#404040" d="M-299.495,415.04l0.014-0.8c0.086-0.023,0.328-0.068,0.725-0.138c0.398-0.069,0.699-0.144,0.903-0.232
	c0.041-0.064,0.075-0.142,0.106-0.227c0.033-0.09,0.057-0.184,0.075-0.289c0.018-0.105,0.034-0.193,0.046-0.272
	s0.023-0.186,0.024-0.325c0.004-0.129,0.004-0.224,0.004-0.284v-0.561c0-5.577-0.063-8.487-0.187-8.731
	c-0.024-0.046-0.086-0.086-0.187-0.127c-0.104-0.035-0.229-0.07-0.38-0.094c-0.148-0.023-0.289-0.047-0.421-0.059
	c-0.13-0.013-0.266-0.024-0.412-0.036s-0.233-0.022-0.262-0.025l-0.035-0.706c0.56-0.018,1.523-0.045,2.899-0.1
	c1.376-0.053,2.436-0.082,3.18-0.082c0.129,0,0.323,0,0.582,0.007c0.258,0.002,0.45,0.004,0.574,0.004
	c0.398,0,0.786,0.036,1.165,0.112c0.376,0.072,0.744,0.192,1.096,0.356s0.658,0.37,0.92,0.605c0.259,0.238,0.471,0.538,0.629,0.891
	c0.159,0.354,0.239,0.749,0.238,1.173c0,0.294-0.047,0.566-0.14,0.812c-0.094,0.252-0.205,0.452-0.329,0.615
	c-0.129,0.164-0.314,0.322-0.551,0.486c-0.24,0.17-0.449,0.299-0.625,0.386c-0.175,0.091-0.415,0.2-0.716,0.341
	c0.875,0.199,1.602,0.58,2.185,1.144c0.582,0.562,0.874,1.266,0.874,2.111c0,0.565-0.1,1.078-0.299,1.526
	c-0.199,0.456-0.463,0.827-0.796,1.113c-0.333,0.292-0.726,0.535-1.174,0.727c-0.454,0.198-0.917,0.338-1.395,0.418
	c-0.478,0.08-0.978,0.12-1.5,0.12c-0.25,0-0.626-0.011-1.125-0.024c-0.501-0.021-0.876-0.026-1.125-0.026
	c-0.604,0-1.476,0.034-2.618,0.094c-1.141,0.062-1.798,0.097-1.969,0.104h0.005V415.04z M-294.955,402.937
	c0,0.288,0.012,0.714,0.035,1.288c0.021,0.573,0.032,1.008,0.032,1.297c0,0.154-0.001,0.378-0.002,0.682
	c-0.004,0.296-0.006,0.526-0.006,0.671c0,0.265,0.002,0.457,0.008,0.586c0.238,0.044,0.548,0.064,0.929,0.064
	c0.465,0,0.873-0.041,1.219-0.113c0.347-0.071,0.659-0.199,0.935-0.377c0.28-0.178,0.492-0.434,0.637-0.763
	c0.146-0.329,0.218-0.734,0.218-1.215c0-0.397-0.083-0.741-0.247-1.044c-0.165-0.294-0.391-0.526-0.673-0.694
	c-0.286-0.172-0.591-0.29-0.92-0.371c-0.329-0.082-0.681-0.12-1.059-0.12C-294.131,402.828-294.501,402.865-294.955,402.937
	L-294.955,402.937z M-294.908,412.544c0.001,0.211,0.015,0.445,0.038,0.712c0.022,0.262,0.056,0.449,0.103,0.566
	c0.419,0.183,0.817,0.27,1.192,0.27c2.137,0,3.204-0.949,3.204-2.851c0-0.646-0.117-1.159-0.348-1.533
	c-0.156-0.25-0.328-0.46-0.526-0.631c-0.197-0.17-0.388-0.305-0.575-0.398c-0.187-0.094-0.416-0.165-0.686-0.211
	c-0.272-0.048-0.508-0.082-0.715-0.094c-0.209-0.012-0.475-0.014-0.807-0.014c-0.415,0-0.699,0.024-0.86,0.083
	c0,0.304-0.001,0.751-0.002,1.356c-0.004,0.601-0.005,1.053-0.005,1.347c0,0.04-0.004,0.237-0.007,0.576
	C-294.908,412.06-294.911,412.334-294.908,412.544L-294.908,412.544L-294.908,412.544z"/>
</svg>
