<?xml version="1.0" encoding="utf-8"?>
<!-- Generator: Adobe Illustrator 16.0.0, SVG Export Plug-In . SVG Version: 6.00 Build 0)  -->
<!DOCTYPE svg PUBLIC "-//W3C//DTD SVG 1.1//EN" "http://www.w3.org/Graphics/SVG/1.1/DTD/svg11.dtd">
<svg version="1.1" id="Layer_1" xmlns:sketch="http://www.bohemiancoding.com/sketch/ns"
	 xmlns="http://www.w3.org/2000/svg" xmlns:xlink="http://www.w3.org/1999/xlink" x="0px" y="0px" width="30px" height="30px"
	 viewBox="-317 386.5 30 30" enable-background="new -317 386.5 30 30" xml:space="preserve">
<title>B</title>
<desc>Created with Sketch Beta.</desc>
<g id="item-form1" sketch:type="MSPage">
	<g id="in-course" transform="translate(-643.000000, -1743.000000)" sketch:type="MSArtboardGroup">
		<g id="Feedback-added-to-Answer" transform="translate(526.000000, 1230.000000)" sketch:type="MSLayerGroup">
			<g id="Answer-2" transform="translate(0.000000, 297.000000)" sketch:type="MSShapeGroup">
				<g id="Clicked_x2F_Feedbac" transform="translate(76.000000, 208.000000)">
					<g id="Text-stuff-copy">
						<g id="B-_x7C_-i-_x7C_-_x3D_" transform="translate(11.000000, 0.000000)">
							<path id="B" fill="#383E44" d="M-271.097,414.496c1.479,0,2.213-1.134,2.213-2.442c0-1.134-0.632-2.051-1.435-2.199
								c0.712-0.188,1.287-0.944,1.287-2.064c0-1.134-0.711-2.294-2.201-2.294h-4.268v9H-271.097z M-271.672,408.95h-1.886v-1.497
								h1.886c0.395,0,0.667,0.31,0.667,0.742C-271.006,408.641-271.277,408.95-271.672,408.95z M-273.558,412.539v-1.619h1.953
								c0.474,0,0.746,0.365,0.746,0.811c0,0.485-0.283,0.809-0.746,0.809H-273.558z"/>
						</g>
					</g>
				</g>
			</g>
		</g>
	</g>
</g>
</svg>
