<?xml version="1.0" encoding="utf-8"?>
<!-- Generated by IcoMoon.io -->
<!DOCTYPE svg PUBLIC "-//W3C//DTD SVG 1.1//EN" "http://www.w3.org/Graphics/SVG/1.1/DTD/svg11.dtd">
<svg version="1.1" xmlns="http://www.w3.org/2000/svg" xmlns:xlink="http://www.w3.org/1999/xlink" width="19" height="24" viewBox="0 0 19 24">
<g>
	<line stroke-width="1" x1="" y1="" x2="" y2="" stroke="#449FDB" opacity=""></line>
</g>
	<path d="M0 22.286l0.027-1.259q0.201-0.054 1.138-0.214t1.42-0.362q0.094-0.161 0.167-0.362t0.114-0.449 0.074-0.435 0.040-0.502 0.007-0.455v-0.877q0-13.152-0.295-13.728-0.054-0.107-0.295-0.194t-0.596-0.147-0.663-0.094-0.65-0.060-0.408-0.040l-0.054-1.112q1.313-0.027 4.554-0.154t4.996-0.127q0.308 0 0.917 0.007t0.904 0.007q0.938 0 1.828 0.174t1.721 0.562 1.446 0.951 0.991 1.4 0.375 1.842q0 0.696-0.221 1.279t-0.522 0.964-0.864 0.77-0.978 0.603-1.125 0.536q2.063 0.469 3.435 1.795t1.373 3.321q0 1.339-0.469 2.404t-1.252 1.748-1.848 1.145-2.19 0.65-2.357 0.188q-0.589 0-1.768-0.040t-1.768-0.040q-1.42 0-4.112 0.147t-3.094 0.161zM7.138 3.268q0 0.67 0.054 2.022t0.054 2.036q0 0.362-0.007 1.071t-0.007 1.058q0 0.616 0.013 0.924 0.563 0.094 1.46 0.094 1.098 0 1.915-0.174t1.473-0.596 0.998-1.199 0.342-1.902q0-0.938-0.388-1.641t-1.058-1.098-1.446-0.583-1.661-0.188q-0.67 0-1.741 0.174zM7.212 18.362q0.007 0.496 0.060 1.118t0.161 0.891q0.991 0.429 1.875 0.429 5.036 0 5.036-4.487 0-1.527-0.549-2.411-0.362-0.589-0.824-0.991t-0.904-0.623-1.078-0.335-1.125-0.141-1.266-0.027q-0.978 0-1.353 0.134 0 0.71-0.007 2.129t-0.007 2.116q0 0.107-0.013 0.904t-0.007 1.292z" fill="#404040"></path>
</svg>
