<?xml version="1.0" encoding="utf-8"?>
<!-- Generator: Adobe Illustrator 16.0.0, SVG Export Plug-In . SVG Version: 6.00 Build 0)  -->
<!DOCTYPE svg PUBLIC "-//W3C//DTD SVG 1.1//EN" "http://www.w3.org/Graphics/SVG/1.1/DTD/svg11.dtd">
<svg version="1.1" id="Layer_1" xmlns="http://www.w3.org/2000/svg" xmlns:xlink="http://www.w3.org/1999/xlink" x="0px" y="0px"
	 width="24px" height="24px" viewBox="-305.5 396.5 24 24" enable-background="new -305.5 396.5 24 24" xml:space="preserve">
<g>
	<line fill="none" stroke="#449FDB" x1="0" y1="0" x2="0" y2="0"/>
</g>
<path fill="#404040" d="M-299.5,405.677c0-0.587,0.207-1.083,0.625-1.491l1.08-1.074c0.408-0.404,0.903-0.61,1.493-0.61
	c0.592,0,1.092,0.21,1.5,0.628l1.514,1.518c0.408,0.408,0.612,0.908,0.612,1.494c0,0.603-0.217,1.114-0.649,1.536l0.649,0.646
	c0.422-0.433,0.929-0.646,1.526-0.646c0.59,0,1.089,0.21,1.5,0.62l1.532,1.526c0.411,0.411,0.617,0.912,0.617,1.5
	c0,0.587-0.207,1.087-0.625,1.491l-1.08,1.073c-0.408,0.409-0.903,0.61-1.493,0.61c-0.592,0-1.092-0.209-1.5-0.623l-1.514-1.522
	c-0.408-0.408-0.609-0.903-0.609-1.489c0-0.607,0.214-1.12,0.646-1.542l-0.646-0.646c-0.425,0.434-0.932,0.646-1.529,0.646
	c-0.59,0-1.089-0.203-1.5-0.614l-1.532-1.53C-299.294,406.765-299.5,406.263-299.5,405.677z M-298.088,405.677
	c0,0.197,0.069,0.362,0.206,0.5l1.529,1.534c0.133,0.13,0.299,0.192,0.5,0.192c0.205,0,0.384-0.074,0.53-0.226
	c-0.016-0.014-0.062-0.06-0.14-0.138c-0.08-0.074-0.133-0.13-0.158-0.157c-0.028-0.03-0.064-0.077-0.11-0.14
	c-0.046-0.065-0.078-0.127-0.095-0.188c-0.017-0.059-0.027-0.129-0.027-0.199c0-0.197,0.068-0.363,0.205-0.502
	c0.139-0.14,0.304-0.208,0.501-0.208c0.072,0,0.141,0.01,0.201,0.03c0.062,0.015,0.124,0.047,0.188,0.094
	c0.064,0.047,0.111,0.082,0.14,0.108c0.029,0.025,0.082,0.081,0.158,0.161c0.076,0.074,0.122,0.12,0.135,0.135
	c0.163-0.146,0.244-0.33,0.244-0.533c0-0.197-0.069-0.362-0.206-0.502l-1.516-1.521c-0.136-0.133-0.304-0.203-0.499-0.203
	c-0.192,0-0.358,0.062-0.499,0.199l-1.082,1.07C-298.019,405.323-298.088,405.487-298.088,405.677z M-292.92,410.863
	c0,0.191,0.069,0.357,0.206,0.496l1.516,1.521c0.131,0.131,0.299,0.199,0.499,0.199c0.197,0,0.363-0.061,0.499-0.189l1.082-1.075
	c0.137-0.139,0.206-0.303,0.206-0.491c0-0.198-0.069-0.363-0.206-0.502l-1.529-1.527c-0.136-0.139-0.304-0.208-0.5-0.208
	c-0.205,0-0.381,0.08-0.531,0.235c0.017,0.018,0.063,0.064,0.14,0.139c0.08,0.078,0.13,0.128,0.158,0.16
	c0.028,0.026,0.064,0.073,0.111,0.135c0.046,0.065,0.078,0.127,0.095,0.193c0.018,0.06,0.027,0.129,0.027,0.2
	c0,0.192-0.068,0.362-0.205,0.497c-0.138,0.139-0.305,0.208-0.502,0.208c-0.072,0-0.14-0.011-0.201-0.025
	c-0.062-0.02-0.126-0.048-0.188-0.095c-0.067-0.047-0.114-0.082-0.14-0.113c-0.029-0.024-0.082-0.074-0.159-0.155
	c-0.076-0.079-0.122-0.126-0.135-0.14C-292.838,410.477-292.92,410.655-292.92,410.863L-292.92,410.863z"/>
</svg>
