<?xml version="1.0" encoding="utf-8"?>
<!-- Generated by IcoMoon.io -->
<!DOCTYPE svg PUBLIC "-//W3C//DTD SVG 1.1//EN" "http://www.w3.org/Graphics/SVG/1.1/DTD/svg11.dtd">
<svg version="1.1" xmlns="http://www.w3.org/2000/svg" xmlns:xlink="http://www.w3.org/1999/xlink" width="22" height="24" viewBox="0 0 22 24">
<g>
	<line stroke-width="1" x1="" y1="" x2="" y2="" stroke="#449FDB" opacity=""></line>
</g>
	<path d="M0.214 6q0-1.607 1.138-2.719l1.969-1.955q1.112-1.112 2.719-1.112 1.621 0 2.732 1.138l2.759 2.772q1.112 1.112 1.112 2.719 0 1.647-1.179 2.799l1.179 1.179q1.152-1.179 2.786-1.179 1.607 0 2.732 1.125l2.786 2.786q1.125 1.125 1.125 2.732t-1.138 2.719l-1.969 1.955q-1.112 1.112-2.719 1.112-1.621 0-2.732-1.138l-2.759-2.772q-1.112-1.112-1.112-2.719 0-1.647 1.179-2.799l-1.179-1.179q-1.152 1.179-2.786 1.179-1.607 0-2.732-1.125l-2.786-2.786q-1.125-1.125-1.125-2.732zM2.786 6q0 0.536 0.375 0.911l2.786 2.786q0.362 0.362 0.911 0.362 0.563 0 0.964-0.415-0.040-0.040-0.254-0.248t-0.288-0.288-0.201-0.254-0.174-0.342-0.047-0.368q0-0.536 0.375-0.911t0.911-0.375q0.201 0 0.368 0.047t0.342 0.174 0.254 0.201 0.288 0.288 0.248 0.254q0.442-0.415 0.442-0.978 0-0.536-0.375-0.911l-2.759-2.772q-0.375-0.375-0.911-0.375-0.522 0-0.911 0.362l-1.969 1.955q-0.375 0.375-0.375 0.897zM12.201 15.442q0 0.536 0.375 0.911l2.759 2.772q0.362 0.362 0.911 0.362 0.536 0 0.911-0.348l1.969-1.955q0.375-0.375 0.375-0.897 0-0.536-0.375-0.911l-2.786-2.786q-0.375-0.375-0.911-0.375-0.563 0-0.964 0.429 0.040 0.040 0.254 0.248t0.288 0.288 0.201 0.254 0.174 0.342 0.047 0.368q0 0.536-0.375 0.911t-0.911 0.375q-0.201 0-0.368-0.047t-0.342-0.174-0.254-0.201-0.288-0.288-0.248-0.254q-0.442 0.415-0.442 0.978z" fill="#404040"></path>
</svg>
