<?xml version="1.0" encoding="utf-8"?>
<!-- Generator: Adobe Illustrator 16.0.0, SVG Export Plug-In . SVG Version: 6.00 Build 0)  -->
<!DOCTYPE svg PUBLIC "-//W3C//DTD SVG 1.1//EN" "http://www.w3.org/Graphics/SVG/1.1/DTD/svg11.dtd">
<svg version="1.1" id="Layer_1" xmlns="http://www.w3.org/2000/svg" xmlns:xlink="http://www.w3.org/1999/xlink" x="0px" y="0px"
	 width="24px" height="24px" viewBox="-305.5 396.5 24 24" enable-background="new -305.5 396.5 24 24" xml:space="preserve">
<g>
	<line fill="none" stroke="#449FDB" x1="0" y1="0" x2="0" y2="0"/>
</g>
<path fill="#404040" d="M-298.5,408.499c0-0.057,0.021-0.106,0.065-0.151l3.056-3.055c0.043-0.044,0.094-0.066,0.151-0.066
	s0.107,0.022,0.151,0.066l0.328,0.328c0.044,0.043,0.066,0.094,0.066,0.15c0,0.056-0.022,0.106-0.066,0.149l-2.577,2.577
	l2.577,2.577c0.044,0.043,0.066,0.095,0.066,0.149c0,0.058-0.022,0.107-0.066,0.151l-0.328,0.328
	c-0.044,0.044-0.094,0.063-0.151,0.063s-0.107-0.021-0.151-0.063l-3.056-3.056C-298.479,408.606-298.5,408.555-298.5,408.499z
	 M-294.126,412.617l2.446-8.465c0.018-0.059,0.051-0.101,0.102-0.129c0.05-0.028,0.101-0.033,0.154-0.018l0.406,0.112
	c0.057,0.018,0.1,0.052,0.128,0.103c0.028,0.051,0.033,0.104,0.016,0.16l-2.446,8.466c-0.018,0.058-0.052,0.101-0.102,0.128
	c-0.05,0.028-0.102,0.034-0.154,0.018l-0.407-0.111c-0.057-0.02-0.1-0.052-0.128-0.104
	C-294.138,412.729-294.144,412.674-294.126,412.617z M-290.317,411.229c0-0.058,0.022-0.107,0.066-0.15l2.577-2.578l-2.577-2.576
	c-0.044-0.044-0.066-0.095-0.066-0.15c0-0.057,0.022-0.106,0.066-0.15l0.328-0.328c0.044-0.044,0.094-0.066,0.151-0.066
	c0.056,0,0.107,0.022,0.15,0.066l3.057,3.056c0.043,0.044,0.065,0.095,0.065,0.15c0,0.058-0.021,0.107-0.065,0.151l-3.057,3.056
	c-0.043,0.044-0.094,0.065-0.15,0.065c-0.057,0-0.107-0.021-0.151-0.065l-0.328-0.328
	C-290.295,411.335-290.317,411.284-290.317,411.229z"/>
</svg>
