<?xml version="1.0" encoding="utf-8"?>
<!-- Generated by IcoMoon.io -->
<!DOCTYPE svg PUBLIC "-//W3C//DTD SVG 1.1//EN" "http://www.w3.org/Graphics/SVG/1.1/DTD/svg11.dtd">
<svg version="1.1" xmlns="http://www.w3.org/2000/svg" xmlns:xlink="http://www.w3.org/1999/xlink" width="26" height="24" viewBox="0 0 26 24">
<g>
	<line stroke-width="1" x1="" y1="" x2="" y2="" stroke="#449FDB" opacity=""></line>
</g>
	<path d="M0.603 12.857q0-0.174 0.134-0.308l6.241-6.241q0.134-0.134 0.308-0.134t0.308 0.134l0.67 0.67q0.134 0.134 0.134 0.308t-0.134 0.308l-5.263 5.263 5.263 5.263q0.134 0.134 0.134 0.308t-0.134 0.308l-0.67 0.67q-0.134 0.134-0.308 0.134t-0.308-0.134l-6.241-6.241q-0.134-0.134-0.134-0.308zM9.536 21.268l4.996-17.29q0.054-0.174 0.208-0.261t0.315-0.033l0.83 0.228q0.174 0.054 0.261 0.208t0.033 0.328l-4.996 17.29q-0.054 0.174-0.208 0.261t-0.315 0.033l-0.83-0.228q-0.174-0.054-0.261-0.208t-0.033-0.328zM17.317 18.429q0-0.174 0.134-0.308l5.263-5.263-5.263-5.263q-0.134-0.134-0.134-0.308t0.134-0.308l0.67-0.67q0.134-0.134 0.308-0.134t0.308 0.134l6.241 6.241q0.134 0.134 0.134 0.308t-0.134 0.308l-6.241 6.241q-0.134 0.134-0.308 0.134t-0.308-0.134l-0.67-0.67q-0.134-0.134-0.134-0.308z" fill="#404040"></path>
</svg>
