<?xml version="1.0" encoding="utf-8"?>
<!-- Generator: Adobe Illustrator 16.0.0, SVG Export Plug-In . SVG Version: 6.00 Build 0)  -->
<!DOCTYPE svg PUBLIC "-//W3C//DTD SVG 1.1//EN" "http://www.w3.org/Graphics/SVG/1.1/DTD/svg11.dtd">
<svg version="1.1" id="Layer_1" xmlns="http://www.w3.org/2000/svg" xmlns:xlink="http://www.w3.org/1999/xlink" x="0px" y="0px"
	 width="24px" height="24px" viewBox="-305.5 396.5 24 24" enable-background="new -305.5 396.5 24 24" xml:space="preserve">
<g>
	<line fill="none" stroke="#449FDB" x1="0" y1="0" x2="0" y2="0"/>
</g>
<path fill="#404040" d="M-299.501,403.476c0-0.122,0.029-0.237,0.086-0.344c0.056-0.105,0.143-0.16,0.259-0.16
	c0.219,0,0.552,0.01,0.997,0.029c0.444,0.015,0.775,0.024,0.997,0.024c0.201,0,0.504-0.011,0.912-0.024
	c0.402-0.02,0.706-0.029,0.909-0.029c0.119,0,0.21,0.056,0.27,0.16c0.06,0.105,0.089,0.222,0.089,0.344
	c0,0.147-0.041,0.252-0.123,0.314c-0.082,0.066-0.173,0.102-0.276,0.104c-0.104,0.003-0.223,0.014-0.356,0.026
	c-0.135,0.018-0.239,0.047-0.311,0.094c-0.167,0.104-0.252,0.487-0.252,1.154l0.007,2.301c0,0.104,0.003,0.178,0.008,0.232
	c0.061,0.013,0.155,0.021,0.281,0.021h5.029c0.119,0,0.211-0.01,0.271-0.021c0.005-0.055,0.009-0.13,0.009-0.232l0.006-2.301
	c0-0.667-0.085-1.052-0.252-1.154c-0.086-0.051-0.228-0.082-0.42-0.087c-0.194-0.009-0.352-0.042-0.475-0.093
	c-0.123-0.057-0.183-0.176-0.183-0.359c0-0.121,0.03-0.237,0.089-0.344c0.06-0.104,0.148-0.16,0.27-0.16
	c0.211,0,0.528,0.01,0.95,0.028c0.422,0.015,0.738,0.024,0.949,0.024c0.206,0,0.516-0.01,0.929-0.024
	c0.412-0.019,0.723-0.028,0.928-0.028c0.121,0,0.21,0.056,0.27,0.16c0.059,0.105,0.091,0.223,0.091,0.344
	c0,0.147-0.043,0.252-0.126,0.316c-0.083,0.068-0.182,0.104-0.289,0.105c-0.107,0.006-0.23,0.01-0.371,0.021
	c-0.14,0.012-0.245,0.043-0.316,0.091c-0.168,0.108-0.252,0.495-0.252,1.159l0.006,6.784c0,0.568,0.082,0.906,0.245,1.008
	c0.076,0.048,0.187,0.082,0.33,0.097c0.146,0.016,0.273,0.026,0.386,0.033c0.113,0.003,0.212,0.04,0.299,0.109
	c0.086,0.07,0.129,0.177,0.129,0.323c0,0.122-0.029,0.237-0.086,0.344c-0.056,0.105-0.143,0.16-0.259,0.16
	c-0.211,0-0.528-0.01-0.955-0.029c-0.423-0.015-0.744-0.024-0.958-0.024c-0.211,0-0.53,0.011-0.952,0.024
	c-0.423,0.02-0.739,0.029-0.95,0.029c-0.114,0-0.205-0.053-0.266-0.149c-0.063-0.097-0.093-0.209-0.093-0.327
	c0-0.15,0.041-0.26,0.122-0.33c0.082-0.071,0.173-0.114,0.279-0.125s0.23-0.025,0.368-0.049c0.14-0.023,0.249-0.061,0.323-0.107
	c0.161-0.103,0.238-0.436,0.238-1.008l-0.007-2.812c0-0.104-0.003-0.176-0.009-0.223c-0.061-0.021-0.183-0.031-0.359-0.031h-4.857
	c-0.183,0-0.305,0.01-0.366,0.031c-0.005,0.047-0.008,0.119-0.008,0.223l-0.007,2.67c0,0.682,0.088,1.072,0.268,1.178
	c0.076,0.047,0.192,0.08,0.346,0.094c0.152,0.018,0.289,0.022,0.41,0.024c0.119,0.005,0.228,0.041,0.323,0.111
	c0.096,0.064,0.145,0.177,0.145,0.327c0,0.122-0.032,0.237-0.091,0.344c-0.06,0.104-0.146,0.16-0.263,0.16
	c-0.224,0-0.559-0.01-1.002-0.028c-0.444-0.015-0.775-0.024-0.997-0.024c-0.207,0-0.515,0.01-0.92,0.024
	c-0.408,0.019-0.713,0.028-0.914,0.028c-0.11,0-0.194-0.054-0.256-0.151c-0.06-0.103-0.089-0.21-0.089-0.325
	c0-0.143,0.037-0.25,0.112-0.326c0.075-0.07,0.162-0.109,0.258-0.122c0.099-0.012,0.214-0.031,0.343-0.056
	c0.129-0.023,0.229-0.06,0.301-0.106c0.158-0.108,0.238-0.454,0.238-1.03l-0.009-0.409v-5.849c0-0.015,0.003-0.079,0.005-0.188
	c0.003-0.107,0.003-0.198,0-0.261c-0.002-0.066-0.006-0.159-0.011-0.278s-0.013-0.222-0.024-0.304
	c-0.012-0.081-0.029-0.167-0.047-0.261c-0.019-0.094-0.046-0.172-0.078-0.23c-0.034-0.058-0.074-0.099-0.116-0.129
	c-0.071-0.048-0.181-0.074-0.323-0.085c-0.145-0.011-0.272-0.014-0.384-0.014s-0.207-0.034-0.294-0.103
	S-299.501,403.625-299.501,403.476L-299.501,403.476z"/>
</svg>
