<?xml version="1.0" encoding="utf-8"?>
<!-- Generator: Adobe Illustrator 16.0.0, SVG Export Plug-In . SVG Version: 6.00 Build 0)  -->
<!DOCTYPE svg PUBLIC "-//W3C//DTD SVG 1.1//EN" "http://www.w3.org/Graphics/SVG/1.1/DTD/svg11.dtd">
<svg version="1.1" id="Layer_1" xmlns:sketch="http://www.bohemiancoding.com/sketch/ns"
	 xmlns="http://www.w3.org/2000/svg" xmlns:xlink="http://www.w3.org/1999/xlink" x="0px" y="0px" width="30px" height="30px"
	 viewBox="-317 386 30 30" enable-background="new -317 386 30 30" xml:space="preserve">
<title>Rectangle 166</title>
<desc>Created with Sketch Beta.</desc>
<g>
	<path fill="#393F44" d="M-306.643,405.248c0.531-0.058,0.863-0.156,0.996-0.295s0.199-0.501,0.199-1.087v-5.893
		c0-0.487-0.074-0.804-0.223-0.949c-0.148-0.146-0.472-0.237-0.973-0.273V396.5h3.773v0.251c-0.498,0.036-0.821,0.127-0.971,0.273
		c-0.15,0.146-0.225,0.462-0.225,0.949v2.65h4.132v-2.65c0-0.487-0.073-0.804-0.219-0.949c-0.146-0.146-0.472-0.237-0.977-0.273
		V396.5h3.773v0.251c-0.5,0.036-0.825,0.127-0.973,0.273c-0.149,0.146-0.223,0.462-0.223,0.949v6.052
		c0,0.493,0.074,0.81,0.223,0.948c0.148,0.139,0.472,0.23,0.973,0.274v0.252h-3.773v-0.252c0.536-0.054,0.869-0.15,1-0.292
		c0.131-0.141,0.196-0.504,0.196-1.09v-2.644h-4.132v2.803c0,0.493,0.075,0.811,0.225,0.952c0.15,0.14,0.474,0.23,0.971,0.271v0.252
		h-3.773V405.248z"/>
</g>
</svg>
