<?xml version="1.0" encoding="utf-8"?>
<!-- Generated by IcoMoon.io -->
<!DOCTYPE svg PUBLIC "-//W3C//DTD SVG 1.1//EN" "http://www.w3.org/Graphics/SVG/1.1/DTD/svg11.dtd">
<svg version="1.1" xmlns="http://www.w3.org/2000/svg" xmlns:xlink="http://www.w3.org/1999/xlink" width="24" height="24" viewBox="0 0 24 24">
<g>
	<line stroke-width="1" x1="" y1="" x2="" y2="" stroke="#449FDB" opacity=""></line>
</g>
	<path d="M0.83 2.652q0-0.348 0.161-0.643t0.482-0.295q0.616 0 1.855 0.047t1.855 0.047q0.563 0 1.694-0.047t1.694-0.047q0.335 0 0.502 0.295t0.167 0.643q0 0.402-0.228 0.583t-0.516 0.194-0.663 0.054-0.576 0.174q-0.469 0.281-0.469 2.143l0.013 4.286q0 0.281 0.013 0.429 0.174 0.040 0.522 0.040h9.362q0.335 0 0.509-0.040 0.013-0.147 0.013-0.429l0.013-4.286q0-1.862-0.469-2.143-0.241-0.147-0.783-0.167t-0.884-0.174-0.342-0.663q0-0.348 0.167-0.643t0.502-0.295q0.589 0 1.768 0.047t1.768 0.047q0.576 0 1.728-0.047t1.728-0.047q0.335 0 0.502 0.295t0.167 0.643q0 0.402-0.234 0.589t-0.536 0.194-0.69 0.040-0.589 0.167q-0.469 0.308-0.469 2.156l0.013 12.629q0 1.594 0.455 1.875 0.214 0.134 0.616 0.181t0.717 0.060 0.556 0.208 0.241 0.596q0 0.348-0.161 0.643t-0.482 0.295q-0.589 0-1.775-0.047t-1.788-0.047q-0.589 0-1.768 0.047t-1.768 0.047q-0.321 0-0.496-0.275t-0.174-0.609q0-0.415 0.228-0.616t0.522-0.228 0.683-0.094 0.603-0.201q0.442-0.281 0.442-1.875l-0.013-5.237q0-0.281-0.013-0.415-0.174-0.054-0.67-0.054h-9.040q-0.509 0-0.683 0.054-0.013 0.134-0.013 0.415l-0.013 4.969q0 1.902 0.496 2.196 0.214 0.134 0.643 0.174t0.763 0.047 0.603 0.201 0.268 0.609q0 0.348-0.167 0.643t-0.489 0.295q-0.629 0-1.868-0.047t-1.855-0.047q-0.576 0-1.714 0.047t-1.701 0.047q-0.308 0-0.475-0.281t-0.167-0.603q0-0.402 0.208-0.603t0.482-0.234 0.636-0.1 0.563-0.201q0.442-0.308 0.442-1.915l-0.013-0.763v-10.888q0-0.040 0.007-0.348t0-0.489-0.020-0.516-0.047-0.563-0.087-0.489-0.147-0.422-0.214-0.241q-0.201-0.134-0.603-0.161t-0.71-0.027-0.549-0.188-0.241-0.603z" fill="#404040"></path>
</svg>
