<?xml version="1.0" encoding="utf-8"?>
<!-- Generator: Adobe Illustrator 16.0.0, SVG Export Plug-In . SVG Version: 6.00 Build 0)  -->
<!DOCTYPE svg PUBLIC "-//W3C//DTD SVG 1.1//EN" "http://www.w3.org/Graphics/SVG/1.1/DTD/svg11.dtd">
<svg version="1.1" id="Layer_1" xmlns:sketch="http://www.bohemiancoding.com/sketch/ns"
	 xmlns="http://www.w3.org/2000/svg" xmlns:xlink="http://www.w3.org/1999/xlink" x="0px" y="0px" width="30px" height="30px"
	 viewBox="-318 386.5 30 30" enable-background="new -318 386.5 30 30" xml:space="preserve">
<title>i</title>
<desc>Created with Sketch Beta.</desc>
<g id="item-form1" sketch:type="MSPage">
	<g id="in-course" transform="translate(-672.000000, -1743.000000)" sketch:type="MSArtboardGroup">
		<g id="Feedback-added-to-Answer" transform="translate(526.000000, 1230.000000)" sketch:type="MSLayerGroup">
			<g id="Answer-2" transform="translate(0.000000, 297.000000)" sketch:type="MSShapeGroup">
				<g id="Clicked_x2F_Feedbac" transform="translate(76.000000, 208.000000)">
					<g id="Text-stuff-copy">
						<g id="B-_x7C_-i-_x7C_-_x3D_" transform="translate(11.000000, 0.000000)">
							<path id="i" fill="#393F44" d="M-242.799,404.5c0.365,0,0.673,0.102,0.924,0.304c0.25,0.202,0.375,0.448,0.375,0.735
								s-0.127,0.532-0.38,0.734c-0.253,0.203-0.56,0.305-0.919,0.305c-0.354,0-0.656-0.102-0.91-0.305
								c-0.253-0.202-0.38-0.447-0.38-0.734s0.125-0.533,0.375-0.735C-243.463,404.602-243.158,404.5-242.799,404.5
								C-242.799,404.5-243.158,404.5-242.799,404.5L-242.799,404.5L-242.799,404.5z M-242.251,407.751l-1.811,5.024
								c-0.1,0.287-0.15,0.477-0.15,0.565c0,0.052,0.026,0.101,0.08,0.146c0.053,0.045,0.109,0.066,0.167,0.066
								c0.1,0,0.2-0.035,0.3-0.105c0.265-0.175,0.583-0.49,0.954-0.947l0.301,0.142c-0.889,1.239-1.834,1.858-2.835,1.858
								c-0.383,0-0.688-0.086-0.914-0.258c-0.227-0.172-0.34-0.391-0.34-0.654c0-0.174,0.05-0.396,0.15-0.664l1.228-3.378
								c0.118-0.325,0.177-0.57,0.177-0.735c0-0.104-0.056-0.195-0.168-0.275c-0.112-0.08-0.265-0.12-0.459-0.12
								c-0.088,0-0.194,0.003-0.318,0.007l0.115-0.282l2.994-0.389l0,0H-242.251L-242.251,407.751z"/>
						</g>
					</g>
				</g>
			</g>
		</g>
	</g>
</g>
</svg>
