<?xml version="1.0" encoding="utf-8"?>
<!-- Generator: Adobe Illustrator 16.0.0, SVG Export Plug-In . SVG Version: 6.00 Build 0)  -->
<!DOCTYPE svg PUBLIC "-//W3C//DTD SVG 1.1//EN" "http://www.w3.org/Graphics/SVG/1.1/DTD/svg11.dtd">
<svg version="1.1" id="Layer_1" xmlns="http://www.w3.org/2000/svg" xmlns:xlink="http://www.w3.org/1999/xlink" x="0px" y="0px"
	 width="24px" height="24px" viewBox="-305.5 396.5 24 24" enable-background="new -305.5 396.5 24 24" xml:space="preserve">
<g>
	<line fill="none" stroke="#449FDB" x1="0" y1="0" x2="0" y2="0"/>
</g>
<path fill="#404040" d="M-297.5,414.486l0.133-0.665c0.031-0.01,0.243-0.065,0.637-0.167c0.394-0.105,0.684-0.199,0.871-0.294
	c0.147-0.183,0.253-0.445,0.32-0.789c0.007-0.038,0.167-0.789,0.484-2.258c0.317-1.47,0.614-2.886,0.891-4.249
	c0.274-1.36,0.413-2.134,0.406-2.315v-0.195c-0.125-0.067-0.267-0.114-0.426-0.146c-0.16-0.026-0.34-0.048-0.543-0.062
	c-0.203-0.011-0.354-0.025-0.453-0.042l0.148-0.804c0.172,0.01,0.484,0.029,0.938,0.049c0.454,0.027,0.843,0.043,1.167,0.059
	c0.326,0.016,0.64,0.018,0.942,0.018c0.25,0,0.507-0.006,0.77-0.018c0.262-0.016,0.578-0.031,0.945-0.059
	c0.367-0.02,0.624-0.039,0.769-0.049c-0.024,0.202-0.075,0.436-0.148,0.694c-0.156,0.054-0.421,0.127-0.793,0.226
	c-0.372,0.095-0.654,0.182-0.848,0.259c-0.04,0.102-0.078,0.211-0.109,0.335c-0.032,0.12-0.055,0.227-0.071,0.312
	c-0.015,0.082-0.035,0.204-0.058,0.354c-0.023,0.149-0.042,0.26-0.052,0.328c-0.14,0.771-0.367,1.865-0.686,3.275
	c-0.313,1.418-0.516,2.342-0.604,2.779c-0.011,0.048-0.045,0.197-0.102,0.452c-0.058,0.257-0.109,0.487-0.156,0.704
	c-0.047,0.213-0.089,0.431-0.125,0.654c-0.037,0.219-0.053,0.369-0.046,0.447l0.007,0.141c0.088,0.021,0.57,0.103,1.445,0.242
	c-0.015,0.228-0.058,0.485-0.125,0.772c-0.058,0-0.143,0.007-0.256,0.011c-0.11,0.012-0.196,0.014-0.252,0.014
	c-0.151,0-0.378-0.029-0.68-0.078c-0.303-0.053-0.526-0.078-0.672-0.078c-0.719-0.014-1.256-0.016-1.609-0.016
	c-0.268,0-0.64,0.022-1.117,0.07C-297.032,414.447-297.351,414.476-297.5,414.486L-297.5,414.486z"/>
</svg>
