<?xml version="1.0" encoding="utf-8"?>
<!-- Generated by IcoMoon.io -->
<!DOCTYPE svg PUBLIC "-//W3C//DTD SVG 1.1//EN" "http://www.w3.org/Graphics/SVG/1.1/DTD/svg11.dtd">
<svg version="1.1" xmlns="http://www.w3.org/2000/svg" xmlns:xlink="http://www.w3.org/1999/xlink" width="14" height="24" viewBox="0 0 14 24">
<g>
	<line stroke-width="1" x1="" y1="" x2="" y2="" stroke="#449FDB" opacity=""></line>
</g>
	<path d="M0 22.259l0.228-1.138q0.080-0.027 1.092-0.288t1.493-0.502q0.375-0.469 0.549-1.353 0.013-0.094 0.83-3.871t1.527-7.279 0.696-3.971v-0.335q-0.321-0.174-0.73-0.248t-0.931-0.107-0.777-0.074l0.254-1.379q0.442 0.027 1.607 0.087t2.002 0.094 1.614 0.033q0.643 0 1.319-0.033t1.621-0.094 1.319-0.087q-0.067 0.522-0.254 1.192-0.402 0.134-1.359 0.382t-1.453 0.449q-0.107 0.254-0.188 0.569t-0.121 0.536-0.1 0.609-0.087 0.563q-0.362 1.982-1.172 5.618t-1.038 4.761q-0.027 0.121-0.174 0.777t-0.268 1.205-0.214 1.118-0.080 0.77l0.013 0.241q0.228 0.054 2.478 0.415-0.040 0.589-0.214 1.326-0.147 0-0.435 0.020t-0.435 0.020q-0.388 0-1.165-0.134t-1.152-0.134q-1.848-0.027-2.759-0.027-0.683 0-1.915 0.121t-1.621 0.147z" fill="#404040"></path>
</svg>
