<?xml version="1.0" encoding="utf-8"?>
<!-- Generator: Adobe Illustrator 16.0.0, SVG Export Plug-In . SVG Version: 6.00 Build 0)  -->
<!DOCTYPE svg PUBLIC "-//W3C//DTD SVG 1.1//EN" "http://www.w3.org/Graphics/SVG/1.1/DTD/svg11.dtd">
<svg version="1.1" id="Layer_1" xmlns:sketch="http://www.bohemiancoding.com/sketch/ns"
	 xmlns="http://www.w3.org/2000/svg" xmlns:xlink="http://www.w3.org/1999/xlink" x="0px" y="0px" width="30px" height="30px"
	 viewBox="-313.5 385.5 30 30" enable-background="new -313.5 385.5 30 30" xml:space="preserve">
<title>Rectangle 164</title>
<desc>Created with Sketch Beta.</desc>
<g id="item-form1" sketch:type="MSPage">
	<g id="in-course" transform="translate(-812.000000, -1744.000000)" sketch:type="MSArtboardGroup">
		<g id="Feedback-added-to-Answer" transform="translate(526.000000, 1230.000000)" sketch:type="MSLayerGroup">
			<g id="Answer-2" transform="translate(0.000000, 297.000000)" sketch:type="MSShapeGroup">
				<g id="Clicked_x2F_Feedbac" transform="translate(76.000000, 208.000000)">
					<g id="Text-stuff-copy">
						<g id="B-_x7C_-i-_x7C_-_x3D_" transform="translate(11.000000, 0.000000)">
							<path id="Rectangle-164" fill="#8F9896" d="M-102.727,413.5h-0.825c-1.636,0-2.948-1.57-2.948-3.509v-0.982
								c0-1.947,1.32-3.509,2.948-3.509h0.825c1.18,0,2.191,0.817,2.664,2h-3.491c-0.699,0-1.266,0.679-1.266,1.501v0.998
								c0,0.829,0.568,1.501,1.266,1.501h3.491C-100.536,412.686-101.551,413.5-102.727,413.5z M-100.463,408.5
								c-0.55,0-0.996,0.443-0.996,1c0,0.553,0.45,1,0.996,1h2.211c0.549,0,0.995-0.443,0.995-1c0-0.553-0.45-1-0.995-1H-100.463z
								 M-96.273,413.5h0.825c1.636,0,2.948-1.57,2.948-3.509v-0.982c0-1.947-1.32-3.509-2.948-3.509h-0.825
								c-1.18,0-2.191,0.817-2.664,2h3.491c0.699,0,1.266,0.679,1.266,1.501v0.998c0,0.829-0.568,1.501-1.266,1.501h-3.491
								C-98.465,412.686-97.449,413.5-96.273,413.5z"/>
						</g>
					</g>
				</g>
			</g>
		</g>
	</g>
</g>
</svg>
