<?xml version="1.0" encoding="utf-8"?>
<!-- Generator: Adobe Illustrator 16.0.0, SVG Export Plug-In . SVG Version: 6.00 Build 0)  -->
<!DOCTYPE svg PUBLIC "-//W3C//DTD SVG 1.1//EN" "http://www.w3.org/Graphics/SVG/1.1/DTD/svg11.dtd">
<svg version="1.1" id="Layer_1" xmlns="http://www.w3.org/2000/svg" xmlns:xlink="http://www.w3.org/1999/xlink" x="0px" y="0px"
	 width="24px" height="24px" viewBox="-305.5 396.5 24 24" enable-background="new -305.5 396.5 24 24" xml:space="preserve">
<g>
	<line fill="none" stroke="#449FDB" x1="0" y1="0" x2="0" y2="0"/>
</g>
<path fill="#404040" d="M-300,411.431c0-0.359,0.125-0.663,0.375-0.912c0.25-0.249,0.555-0.375,0.91-0.375
	c0.356,0,0.661,0.127,0.911,0.375c0.249,0.249,0.375,0.553,0.375,0.912c0,0.354-0.126,0.659-0.375,0.907
	c-0.25,0.253-0.555,0.376-0.911,0.376c-0.355,0-0.66-0.123-0.91-0.376C-299.875,412.09-300,411.785-300,411.431z M-300,405.569
	c0-0.354,0.125-0.659,0.375-0.907c0.25-0.252,0.555-0.376,0.91-0.376c0.356,0,0.661,0.123,0.911,0.376
	c0.249,0.249,0.375,0.553,0.375,0.907c0,0.359-0.126,0.663-0.375,0.912c-0.25,0.248-0.555,0.375-0.911,0.375
	c-0.355,0-0.66-0.127-0.91-0.375C-299.875,406.232-300,405.929-300,405.569z M-295.572,412.074v-1.287
	c0-0.058,0.022-0.111,0.064-0.15c0.042-0.044,0.093-0.062,0.151-0.062h8.142c0.059,0,0.109,0.019,0.151,0.062
	c0.044,0.039,0.064,0.092,0.064,0.15v1.287c0,0.055-0.02,0.106-0.064,0.146c-0.042,0.045-0.092,0.065-0.151,0.065h-8.142
	c-0.058,0-0.109-0.021-0.151-0.065C-295.549,412.181-295.572,412.129-295.572,412.074z M-295.572,406.214v-1.288
	c0-0.054,0.022-0.106,0.064-0.146c0.042-0.044,0.093-0.065,0.151-0.065h8.142c0.059,0,0.109,0.021,0.151,0.065
	c0.044,0.04,0.064,0.092,0.064,0.146v1.288c0,0.058-0.02,0.11-0.064,0.15c-0.042,0.044-0.092,0.062-0.151,0.062h-8.142
	c-0.058,0-0.109-0.018-0.151-0.062C-295.55,406.324-295.572,406.271-295.572,406.214z"/>
</svg>
