<?xml version="1.0" encoding="utf-8"?>
<!-- Generator: Adobe Illustrator 16.0.0, SVG Export Plug-In . SVG Version: 6.00 Build 0)  -->
<!DOCTYPE svg PUBLIC "-//W3C//DTD SVG 1.1//EN" "http://www.w3.org/Graphics/SVG/1.1/DTD/svg11.dtd">
<svg version="1.1" id="Layer_1" xmlns="http://www.w3.org/2000/svg" xmlns:xlink="http://www.w3.org/1999/xlink" x="0px" y="0px"
	 width="24px" height="24px" viewBox="-305.5 396.5 24 24" enable-background="new -305.5 396.5 24 24" xml:space="preserve">
<g>
	<line fill="none" stroke="#449FDB" x1="0" y1="0" x2="0" y2="0"/>
</g>
<path fill="#404040" d="M-300,412.75l0.385-0.594c0.221,0.202,0.46,0.303,0.719,0.303c0.129,0,0.243-0.032,0.34-0.098
	c0.096-0.063,0.145-0.162,0.145-0.286c0-0.291-0.238-0.417-0.71-0.379l-0.176-0.382c0.037-0.044,0.108-0.141,0.218-0.292
	c0.112-0.154,0.207-0.271,0.289-0.365s0.165-0.18,0.251-0.261v-0.008c-0.073,0-0.181,0.001-0.328,0.008
	c-0.146,0.002-0.258,0.005-0.329,0.005v0.36h-0.718v-1.031h2.255v0.598l-0.645,0.775c0.23,0.056,0.412,0.166,0.549,0.335
	c0.135,0.167,0.203,0.364,0.203,0.594c0,0.363-0.123,0.646-0.369,0.854s-0.551,0.31-0.916,0.31
	C-299.314,413.196-299.703,413.049-300,412.75L-300,412.75z M-299.9,404.662l0.921-0.857h0.716v2.732h0.731v0.671h-2.268v-0.671
	h0.727c0-0.183,0-0.461,0.002-0.827c0.003-0.367,0.003-0.636,0.003-0.818v-0.079h-0.012c-0.037,0.074-0.15,0.196-0.34,0.363
	L-299.9,404.662z"/>
<path fill="#404040" d="M-295.572,412.074v-1.287c0-0.058,0.022-0.111,0.064-0.15c0.042-0.044,0.093-0.062,0.151-0.062h8.142
	c0.059,0,0.109,0.019,0.151,0.062c0.044,0.039,0.064,0.092,0.064,0.15v1.287c0,0.055-0.02,0.106-0.064,0.146
	c-0.042,0.045-0.092,0.065-0.151,0.065h-8.142c-0.058,0-0.109-0.021-0.151-0.065C-295.549,412.181-295.572,412.129-295.572,412.074z
	 M-295.572,406.214v-1.288c0-0.054,0.022-0.106,0.064-0.146c0.042-0.044,0.093-0.065,0.151-0.065h8.142
	c0.059,0,0.109,0.021,0.151,0.065c0.044,0.04,0.064,0.092,0.064,0.146v1.288c0,0.058-0.02,0.11-0.064,0.15
	c-0.042,0.044-0.092,0.062-0.151,0.062h-8.142c-0.058,0-0.109-0.018-0.151-0.062C-295.55,406.324-295.572,406.271-295.572,406.214z"
	/>
</svg>
