<?xml version="1.0" encoding="utf-8"?>
<!-- Generated by IcoMoon.io -->
<!DOCTYPE svg PUBLIC "-//W3C//DTD SVG 1.1//EN" "http://www.w3.org/Graphics/SVG/1.1/DTD/svg11.dtd">
<svg version="1.1" xmlns="http://www.w3.org/2000/svg" xmlns:xlink="http://www.w3.org/1999/xlink" width="24" height="24" viewBox="0 0 24 24">
<g>
	<line stroke-width="1" x1="" y1="" x2="" y2="" stroke="#449FDB" opacity=""></line>
</g>
	<path d="M0.201 14.705q0-0.683 0.315-1.246t0.757-0.911 0.884-0.636 0.757-0.583 0.315-0.603q0-0.335-0.194-0.516t-0.529-0.181q-0.616 0-1.085 0.777l-1.138-0.79q0.321-0.683 0.958-1.065t1.413-0.382q0.978 0 1.647 0.556t0.67 1.507q0 0.67-0.455 1.225t-1.004 0.864-1.011 0.676-0.475 0.703h1.701v-0.804h1.406v2.129h-4.848q-0.080-0.482-0.080-0.723zM0.254 23.116l0.763-1.179q0.656 0.603 1.42 0.603 0.388 0 0.676-0.194t0.288-0.569q0-0.857-1.406-0.75l-0.348-0.75q0.107-0.134 0.435-0.583t0.569-0.723 0.496-0.516v-0.013q-0.214 0-0.65 0.013t-0.65 0.013v0.71h-1.42v-2.036h4.46v1.179l-1.272 1.54q0.683 0.161 1.085 0.656t0.402 1.179q0 1.071-0.73 1.688t-1.815 0.616q-1.42 0-2.304-0.884zM0.455 1.821l1.821-1.701h1.42v5.411h1.446v1.326h-4.487v-1.326h1.433q0-0.549 0.007-1.634t0.007-1.621v-0.161h-0.027q-0.107 0.228-0.67 0.723zM6.857 20.143v-2.571q0-0.188 0.121-0.308t0.308-0.121h16.286q0.174 0 0.301 0.127t0.127 0.301v2.571q0 0.174-0.127 0.301t-0.301 0.127h-16.286q-0.174 0-0.301-0.127t-0.127-0.301zM6.857 13.286v-2.571q0-0.188 0.121-0.308t0.308-0.121h16.286q0.174 0 0.301 0.127t0.127 0.301v2.571q0 0.174-0.127 0.301t-0.301 0.127h-16.286q-0.174 0-0.301-0.127t-0.127-0.301zM6.857 6.429v-2.571q0-0.174 0.127-0.301t0.301-0.127h16.286q0.174 0 0.301 0.127t0.127 0.301v2.571q0 0.174-0.127 0.301t-0.301 0.127h-16.286q-0.174 0-0.301-0.127t-0.127-0.301z" fill="#404040"></path>
</svg>
