<?xml version="1.0" encoding="utf-8"?>
<!-- Generated by IcoMoon.io -->
<!DOCTYPE svg PUBLIC "-//W3C//DTD SVG 1.1//EN" "http://www.w3.org/Graphics/SVG/1.1/DTD/svg11.dtd">
<svg version="1.1" xmlns="http://www.w3.org/2000/svg" xmlns:xlink="http://www.w3.org/1999/xlink" width="24" height="24" viewBox="0 0 24 24">
<g>
	<line stroke-width="1" x1="" y1="" x2="" y2="" stroke="#449FDB" opacity=""></line>
</g>
	<path d="M0 18.857q0-1.071 0.75-1.821t1.821-0.75 1.821 0.75 0.75 1.821-0.75 1.821-1.821 0.75-1.821-0.75-0.75-1.821zM0 12q0-1.071 0.75-1.821t1.821-0.75 1.821 0.75 0.75 1.821-0.75 1.821-1.821 0.75-1.821-0.75-0.75-1.821zM0 5.143q0-1.071 0.75-1.821t1.821-0.75 1.821 0.75 0.75 1.821-0.75 1.821-1.821 0.75-1.821-0.75-0.75-1.821zM6.857 20.143v-2.571q0-0.174 0.127-0.301t0.301-0.127h16.286q0.174 0 0.301 0.127t0.127 0.301v2.571q0 0.174-0.127 0.301t-0.301 0.127h-16.286q-0.174 0-0.301-0.127t-0.127-0.301zM6.857 13.286v-2.571q0-0.174 0.127-0.301t0.301-0.127h16.286q0.174 0 0.301 0.127t0.127 0.301v2.571q0 0.174-0.127 0.301t-0.301 0.127h-16.286q-0.174 0-0.301-0.127t-0.127-0.301zM6.857 6.429v-2.571q0-0.174 0.127-0.301t0.301-0.127h16.286q0.174 0 0.301 0.127t0.127 0.301v2.571q0 0.174-0.127 0.301t-0.301 0.127h-16.286q-0.174 0-0.301-0.127t-0.127-0.301z" fill="#404040"></path>
</svg>
