<?xml version="1.0" encoding="utf-8"?>
<!-- Generator: Adobe Illustrator 16.0.0, SVG Export Plug-In . SVG Version: 6.00 Build 0)  -->
<!DOCTYPE svg PUBLIC "-//W3C//DTD SVG 1.1//EN" "http://www.w3.org/Graphics/SVG/1.1/DTD/svg11.dtd">
<svg version="1.1" id="Layer_1" xmlns:sketch="http://www.bohemiancoding.com/sketch/ns"
	 xmlns="http://www.w3.org/2000/svg" xmlns:xlink="http://www.w3.org/1999/xlink" x="0px" y="0px" width="30px" height="30px"
	 viewBox="-315.5 385.5 30 30" enable-background="new -315.5 385.5 30 30" xml:space="preserve">
<title>Oval 103 copy</title>
<desc>Created with Sketch Beta.</desc>
<g id="item-form1" sketch:type="MSPage">
	<g id="in-course" transform="translate(-726.000000, -1744.000000)" sketch:type="MSArtboardGroup">
		<g id="Feedback-added-to-Answer" transform="translate(526.000000, 1230.000000)" sketch:type="MSLayerGroup">
			<g id="Answer-2" transform="translate(0.000000, 297.000000)" sketch:type="MSShapeGroup">
				<g id="Clicked_x2F_Feedbac" transform="translate(76.000000, 208.000000)">
					<g id="Text-stuff-copy">
						<g id="B-_x7C_-i-_x7C_-_x3D_" transform="translate(11.000000, 0.000000)">
							<path id="Oval-103-copy" fill="#393F44" d="M-187.509,405.5c-0.547,0-0.991,0.443-0.991,1c0,0.553,0.451,1,0.991,1h4.019
								c0.547,0,0.99-0.443,0.99-1c0-0.553-0.451-1-0.99-1H-187.509z M-187.509,408.5c-0.547,0-0.991,0.443-0.991,1
								c0,0.553,0.451,1,0.991,1h4.019c0.547,0,0.99-0.443,0.99-1c0-0.553-0.451-1-0.99-1H-187.509z M-187.509,411.5
								c-0.547,0-0.991,0.443-0.991,1c0,0.553,0.451,1,0.991,1h4.019c0.547,0,0.99-0.443,0.99-1c0-0.553-0.451-1-0.99-1H-187.509z
								 M-190.452,408.5v-2.668h-0.596l-0.932,0.92l0.392,0.412l0.448-0.452v1.788H-190.452z M-189.732,413.5v-0.6h-0.976
								c0.664-0.465,0.956-0.812,0.956-1.221c0-0.535-0.452-0.888-1.08-0.888c-0.372,0-0.796,0.132-1.08,0.444l0.38,0.455
								c0.192-0.18,0.416-0.291,0.712-0.291c0.196,0,0.368,0.096,0.368,0.279c0,0.264-0.216,0.448-1.372,1.284v0.536H-189.732z"/>
						</g>
					</g>
				</g>
			</g>
		</g>
	</g>
</g>
</svg>
