<?xml version="1.0" encoding="utf-8"?>
<!-- Generator: Adobe Illustrator 16.0.0, SVG Export Plug-In . SVG Version: 6.00 Build 0)  -->
<!DOCTYPE svg PUBLIC "-//W3C//DTD SVG 1.1//EN" "http://www.w3.org/Graphics/SVG/1.1/DTD/svg11.dtd">
<svg version="1.1" id="Layer_1" xmlns="http://www.w3.org/2000/svg" xmlns:xlink="http://www.w3.org/1999/xlink" x="0px" y="0px"
	 width="24px" height="24px" viewBox="-305.5 396.5 24 24" enable-background="new -305.5 396.5 24 24" xml:space="preserve">
<g>
	<line fill="none" stroke="#449FDB" x1="0" y1="0" x2="0" y2="0"/>
</g>
<path fill="#404040" d="M-297.5,406.677c0-0.706,0.187-1.315,0.562-1.826c0.374-0.499,0.818-0.84,1.333-1.014
	c0.472-0.157,1.359-0.236,2.661-0.236h3.055c0.108,0,0.199,0.039,0.275,0.116c0.076,0.074,0.115,0.166,0.115,0.273v0.465
	c0,0.124-0.04,0.254-0.118,0.39c-0.078,0.135-0.168,0.204-0.272,0.204c-0.212,0-0.328,0-0.344,0.006
	c-0.11,0.025-0.179,0.092-0.204,0.197c-0.012,0.047-0.019,0.184-0.019,0.41v7.348c0,0.106-0.038,0.199-0.115,0.273
	c-0.076,0.077-0.167,0.116-0.274,0.116h-0.688c-0.107,0-0.198-0.039-0.275-0.116c-0.076-0.074-0.115-0.166-0.115-0.273v-7.769
	h-0.912v7.769c0,0.106-0.038,0.199-0.112,0.273c-0.073,0.077-0.166,0.116-0.277,0.116h-0.687c-0.111,0-0.203-0.039-0.278-0.116
	c-0.073-0.074-0.111-0.166-0.111-0.273v-3.165c-0.625-0.05-1.147-0.175-1.562-0.375c-0.537-0.248-0.945-0.628-1.224-1.143
	c-0.272-0.498-0.408-1.048-0.408-1.65H-297.5z"/>
</svg>
