<?xml version="1.0" encoding="utf-8"?>
<!-- Generated by IcoMoon.io -->
<!DOCTYPE svg PUBLIC "-//W3C//DTD SVG 1.1//EN" "http://www.w3.org/Graphics/SVG/1.1/DTD/svg11.dtd">
<svg version="1.1" xmlns="http://www.w3.org/2000/svg" xmlns:xlink="http://www.w3.org/1999/xlink" width="17" height="24" viewBox="0 0 17 24">
<g>
	<line stroke-width="1" x1="" y1="" x2="" y2="" stroke="#449FDB" opacity=""></line>
</g>
	<path d="M0.321 8.17q0-2.223 1.179-3.83 1.179-1.58 2.799-2.129 1.487-0.496 5.585-0.496h6.415q0.335 0 0.576 0.241t0.241 0.576v0.978q0 0.388-0.248 0.817t-0.569 0.429q-0.67 0-0.723 0.013-0.348 0.080-0.429 0.415-0.040 0.147-0.040 0.857v15.429q0 0.335-0.241 0.576t-0.576 0.241h-1.446q-0.335 0-0.576-0.241t-0.241-0.576v-16.313h-1.915v16.313q0 0.335-0.234 0.576t-0.583 0.241h-1.446q-0.348 0-0.583-0.241t-0.234-0.576v-6.643q-1.969-0.161-3.281-0.79-1.688-0.777-2.571-2.397-0.857-1.567-0.857-3.469z" fill="#404040"></path>
</svg>
