<?xml version="1.0" encoding="utf-8"?>
<!-- Generated by IcoMoon.io -->
<!DOCTYPE svg PUBLIC "-//W3C//DTD SVG 1.1//EN" "http://www.w3.org/Graphics/SVG/1.1/DTD/svg11.dtd">
<svg version="1.1" xmlns="http://www.w3.org/2000/svg" xmlns:xlink="http://www.w3.org/1999/xlink" width="22" height="24" viewBox="0 0 22 24">
<g>
	<line stroke-width="1" x1="" y1="" x2="" y2="" stroke="#449FDB" opacity=""></line>
</g>
	<path d="M0 14.571q0-0.188 0.121-0.308t0.308-0.121h4.286q0.188 0 0.308 0.121t0.121 0.308-0.121 0.308-0.308 0.121h-4.286q-0.188 0-0.308-0.121t-0.121-0.308zM0.214 6q0-1.607 1.138-2.719l1.969-1.955q1.112-1.112 2.719-1.112 1.621 0 2.732 1.138l4.473 4.487q0.281 0.281 0.563 0.75l-3.201 0.241-3.656-3.67q-0.375-0.375-0.911-0.375-0.522 0-0.911 0.362l-1.969 1.955q-0.375 0.375-0.375 0.897 0 0.536 0.375 0.911l3.67 3.67-0.241 3.214q-0.469-0.281-0.75-0.563l-4.5-4.5q-1.125-1.152-1.125-2.732zM1.714 20.143q0-0.174 0.121-0.308l3.429-3.429q0.134-0.121 0.308-0.121t0.308 0.121q0.121 0.134 0.121 0.308t-0.121 0.308l-3.429 3.429q-0.134 0.121-0.308 0.121-0.161 0-0.308-0.121-0.121-0.134-0.121-0.308zM7.286 21.857v-4.286q0-0.188 0.121-0.308t0.308-0.121 0.308 0.121 0.121 0.308v4.286q0 0.188-0.121 0.308t-0.308 0.121-0.308-0.121-0.121-0.308zM8.478 15.696l3.201-0.241 3.656 3.67q0.362 0.362 0.911 0.368t0.911-0.355l1.969-1.955q0.375-0.375 0.375-0.897 0-0.536-0.375-0.911l-3.67-3.683 0.241-3.201q0.469 0.281 0.75 0.563l4.5 4.5q1.125 1.152 1.125 2.732 0 1.607-1.138 2.719l-1.969 1.955q-1.112 1.112-2.719 1.112-1.621 0-2.732-1.138l-4.473-4.487q-0.281-0.281-0.563-0.75zM14.143 4.714v-4.286q0-0.188 0.121-0.308t0.308-0.121 0.308 0.121 0.121 0.308v4.286q0 0.188-0.121 0.308t-0.308 0.121-0.308-0.121-0.121-0.308zM16.286 5.571q0-0.174 0.121-0.308l3.429-3.429q0.134-0.121 0.308-0.121t0.308 0.121q0.121 0.134 0.121 0.308t-0.121 0.308l-3.429 3.429q-0.147 0.121-0.308 0.121t-0.308-0.121q-0.121-0.134-0.121-0.308zM17.143 7.714q0-0.188 0.121-0.308t0.308-0.121h4.286q0.188 0 0.308 0.121t0.121 0.308-0.121 0.308-0.308 0.121h-4.286q-0.188 0-0.308-0.121t-0.121-0.308z" fill="#404040"></path>
</svg>
