<?xml version="1.0" encoding="utf-8"?>
<!-- Generator: Adobe Illustrator 16.0.0, SVG Export Plug-In . SVG Version: 6.00 Build 0)  -->
<!DOCTYPE svg PUBLIC "-//W3C//DTD SVG 1.1//EN" "http://www.w3.org/Graphics/SVG/1.1/DTD/svg11.dtd">
<svg version="1.1" id="Layer_1" xmlns="http://www.w3.org/2000/svg" xmlns:xlink="http://www.w3.org/1999/xlink" x="0px" y="0px"
	 width="24px" height="24px" viewBox="-305.5 396.5 24 24" enable-background="new -305.5 396.5 24 24" xml:space="preserve">
<g>
	<line fill="none" stroke="#449FDB" x1="0" y1="0" x2="0" y2="0"/>
</g>
<path fill="#404040" d="M-299.5,410.343c0-0.063,0.022-0.12,0.065-0.164c0.042-0.04,0.099-0.062,0.165-0.062h2.309
	c0.068,0,0.123,0.021,0.167,0.062c0.042,0.045,0.064,0.102,0.064,0.164c0,0.068-0.021,0.126-0.064,0.17
	c-0.045,0.041-0.1,0.062-0.167,0.062h-2.309c-0.066,0-0.123-0.021-0.165-0.062C-299.478,410.469-299.5,410.412-299.5,410.343z
	 M-299.384,405.732c0-0.581,0.202-1.066,0.612-1.465l1.061-1.053c0.398-0.399,0.888-0.6,1.464-0.6c0.582,0,1.072,0.203,1.471,0.611
	l2.408,2.416c0.101,0.102,0.203,0.234,0.304,0.405l-1.724,0.13l-1.968-1.979c-0.135-0.138-0.298-0.201-0.492-0.201
	c-0.188,0-0.351,0.063-0.491,0.192l-1.058,1.054c-0.138,0.137-0.204,0.294-0.204,0.481c0,0.194,0.066,0.358,0.204,0.491l1.975,1.979
	l-0.132,1.731c-0.166-0.104-0.301-0.205-0.401-0.305l-2.424-2.424C-299.184,406.788-299.384,406.297-299.384,405.732
	L-299.384,405.732z M-298.579,413.343c0-0.061,0.022-0.117,0.064-0.164l1.849-1.845c0.047-0.045,0.102-0.066,0.165-0.066
	s0.118,0.021,0.166,0.066c0.044,0.048,0.064,0.104,0.064,0.165c0,0.062-0.02,0.117-0.064,0.165l-1.846,1.849
	c-0.047,0.041-0.105,0.062-0.166,0.062c-0.058,0-0.112-0.021-0.165-0.062C-298.556,413.466-298.579,413.409-298.579,413.343z
	 M-295.579,414.269v-2.31c0-0.063,0.022-0.12,0.067-0.165c0.042-0.045,0.097-0.062,0.165-0.062c0.066,0,0.123,0.018,0.166,0.062
	c0.045,0.045,0.065,0.102,0.065,0.165v2.31c0,0.067-0.02,0.124-0.065,0.164c-0.043,0.045-0.099,0.066-0.166,0.067
	c-0.068,0-0.122-0.021-0.165-0.067C-295.556,414.393-295.579,414.335-295.579,414.269z M-294.936,410.95l1.724-0.129l1.968,1.979
	c0.129,0.129,0.293,0.191,0.492,0.197c0.195,0.002,0.359-0.064,0.491-0.193l1.058-1.049c0.138-0.137,0.204-0.299,0.204-0.486
	c0-0.19-0.066-0.354-0.204-0.486l-1.975-1.986l0.129-1.724c0.169,0.103,0.304,0.2,0.404,0.304l2.424,2.425
	c0.404,0.412,0.604,0.902,0.604,1.468c0,0.581-0.204,1.065-0.611,1.465l-1.061,1.054c-0.398,0.398-0.888,0.599-1.464,0.599
	c-0.583,0-1.072-0.202-1.471-0.611l-2.408-2.415C-294.732,411.255-294.834,411.122-294.936,410.95L-294.936,410.95z
	 M-291.887,405.04v-2.309c0-0.068,0.023-0.124,0.068-0.17c0.042-0.039,0.096-0.062,0.165-0.062c0.069-0.001,0.122,0.021,0.165,0.062
	c0.044,0.046,0.065,0.103,0.065,0.17v2.309c0,0.064-0.021,0.12-0.065,0.165c-0.042,0.04-0.096,0.062-0.165,0.062
	s-0.123-0.022-0.165-0.062C-291.864,405.16-291.887,405.104-291.887,405.04z M-290.729,405.5c0-0.061,0.02-0.117,0.064-0.165
	l1.846-1.849c0.048-0.04,0.102-0.062,0.166-0.062c0.062,0,0.118,0.022,0.165,0.062c0.045,0.048,0.067,0.104,0.067,0.165
	c0,0.065-0.021,0.117-0.067,0.164l-1.843,1.85c-0.056,0.044-0.11,0.067-0.168,0.067s-0.113-0.023-0.166-0.067
	C-290.71,405.617-290.729,405.561-290.729,405.5z M-290.27,406.651c0-0.063,0.022-0.12,0.067-0.165
	c0.042-0.04,0.097-0.062,0.165-0.062h2.308c0.066,0,0.123,0.017,0.165,0.062c0.042,0.045,0.065,0.102,0.065,0.165
	c0,0.069-0.022,0.125-0.065,0.164c-0.045,0.046-0.099,0.068-0.165,0.068h-2.308c-0.068,0-0.123-0.022-0.165-0.068
	C-290.248,406.776-290.27,406.721-290.27,406.651z"/>
</svg>
