<?xml version="1.0" encoding="utf-8"?>
<!-- Generator: Adobe Illustrator 16.0.0, SVG Export Plug-In . SVG Version: 6.00 Build 0)  -->
<!DOCTYPE svg PUBLIC "-//W3C//DTD SVG 1.1//EN" "http://www.w3.org/Graphics/SVG/1.1/DTD/svg11.dtd">
<svg version="1.1" id="Layer_1" xmlns:sketch="http://www.bohemiancoding.com/sketch/ns"
	 xmlns="http://www.w3.org/2000/svg" xmlns:xlink="http://www.w3.org/1999/xlink" x="0px" y="0px" width="30px" height="30px"
	 viewBox="-316 385.5 30 30" enable-background="new -316 385.5 30 30" xml:space="preserve">
<title>Oval 103</title>
<desc>Created with Sketch Beta.</desc>
<g id="item-form1" sketch:type="MSPage">
	<g id="in-course" transform="translate(-698.000000, -1744.000000)" sketch:type="MSArtboardGroup">
		<g id="Feedback-added-to-Answer" transform="translate(526.000000, 1230.000000)" sketch:type="MSLayerGroup">
			<g id="Answer-2" transform="translate(0.000000, 297.000000)" sketch:type="MSShapeGroup">
				<g id="Clicked_x2F_Feedbac" transform="translate(76.000000, 208.000000)">
					<g id="Text-stuff-copy">
						<g id="B-_x7C_-i-_x7C_-_x3D_" transform="translate(11.000000, 0.000000)">
							<path id="Oval-103" fill="#8F9896" d="M-219.5,407.5c0.552,0,1-0.447,1-1s-0.448-1-1-1s-1,0.447-1,1
								S-220.052,407.5-219.5,407.5z M-216.509,405.5c-0.547,0-0.991,0.443-0.991,1c0,0.553,0.451,1,0.991,1h4.019
								c0.547,0,0.99-0.443,0.99-1c0-0.553-0.451-1-0.99-1H-216.509z M-219.5,410.5c0.552,0,1-0.447,1-1s-0.448-1-1-1s-1,0.447-1,1
								S-220.052,410.5-219.5,410.5z M-216.509,408.5c-0.547,0-0.991,0.443-0.991,1c0,0.553,0.451,1,0.991,1h4.019
								c0.547,0,0.99-0.443,0.99-1c0-0.553-0.451-1-0.99-1H-216.509z M-219.5,413.5c0.552,0,1-0.447,1-1s-0.448-1-1-1s-1,0.447-1,1
								S-220.052,413.5-219.5,413.5z M-216.509,411.5c-0.547,0-0.991,0.443-0.991,1c0,0.553,0.451,1,0.991,1h4.019
								c0.547,0,0.99-0.443,0.99-1c0-0.553-0.451-1-0.99-1H-216.509z"/>
						</g>
					</g>
				</g>
			</g>
		</g>
	</g>
</g>
</svg>
